<?xml version="1.0" encoding="UTF-8"?>
<svg version="1.1" xmlns="http://www.w3.org/2000/svg" width="225" height="224">
<path d="M0 0 C74.25 0 148.5 0 225 0 C225 73.92 225 147.84 225 224 C150.75 224 76.5 224 0 224 C0 150.08 0 76.16 0 0 Z " fill="#020202" transform="translate(0,0)"/>
<path d="M0 0 C74.25 0 148.5 0 225 0 C225 73.92 225 147.84 225 224 C150.75 224 76.5 224 0 224 C0 150.08 0 76.16 0 0 Z M90 18 C88.99839844 18.24492187 87.99679688 18.48984375 86.96484375 18.7421875 C62.10865612 25.56782347 41.15439932 42.00671998 28.05908203 64.09765625 C25.22205389 69.19358139 23.04113048 74.54116267 21 80 C20.52626953 81.23169922 20.52626953 81.23169922 20.04296875 82.48828125 C16.59775649 92.04322955 15.63143429 101.77423388 15.6875 111.875 C15.69241455 112.93001709 15.6973291 113.98503418 15.70239258 115.07202148 C15.81777145 122.74560378 16.61845852 129.67437842 19 137 C19.36351562 138.22847656 19.72703125 139.45695312 20.1015625 140.72265625 C27.4311463 164.81205127 44.0510195 184.78045721 66 197 C70.54137137 199.3141719 75.227919 201.21565667 80 203 C80.82113281 203.31582031 81.64226562 203.63164062 82.48828125 203.95703125 C92.21751685 207.46508601 102.09380595 208.36697722 112.375 208.3125 C113.4769873 208.30758545 114.57897461 208.3026709 115.71435547 208.29760742 C123.60402152 208.18383099 130.47178021 207.46631243 138 205 C139.19238281 204.6596875 140.38476562 204.319375 141.61328125 203.96875 C155.00558207 199.91959674 166.53670674 193.36810153 177 184 C177.89332031 183.20078125 178.78664062 182.4015625 179.70703125 181.578125 C196.93459748 165.2902442 208.36223795 142.10136913 209.30859375 118.23828125 C209.83950247 91.69714435 202.97594682 68.0774514 185 48 C183.80117188 46.66001953 183.80117188 46.66001953 182.578125 45.29296875 C172.01495626 34.12038643 159.53252929 26.09091723 145 21 C144.31518555 20.75878418 143.63037109 20.51756836 142.92480469 20.26904297 C126.23577818 14.59776081 107.15245988 13.56533727 90 18 Z " fill="#FEFEFE" transform="translate(0,0)"/>
<path d="M0 0 C2.54282772 1.97688152 4.98413115 4.02510307 7.40234375 6.15234375 C8.54509766 7.15201172 8.54509766 7.15201172 9.7109375 8.171875 C21.38351528 19.07572149 30.7211655 35.33339208 33.40234375 51.15234375 C33.40234375 54.12234375 33.40234375 57.09234375 33.40234375 60.15234375 C16.57234375 60.15234375 -0.25765625 60.15234375 -17.59765625 60.15234375 C-19.24765625 56.19234375 -20.89765625 52.23234375 -22.59765625 48.15234375 C-28.18226167 41.25371352 -34.47178127 36.74559223 -43.4453125 35.70703125 C-52.90380283 35.26929407 -61.17518593 36.65469578 -68.91015625 42.40234375 C-74.30830554 47.9260314 -76.45392727 52.64929233 -78.59765625 60.15234375 C-95.09765625 60.15234375 -111.59765625 60.15234375 -128.59765625 60.15234375 C-128.59765625 53.64257373 -128.49033959 49.28799657 -126.53515625 43.40234375 C-126.20233643 42.37645142 -126.20233643 42.37645142 -125.86279297 41.32983398 C-118.36930001 19.2667985 -102.78907964 2.64193555 -82.1171875 -7.56640625 C-55.3550108 -19.68512778 -24.18813009 -17.20448952 0 0 Z " fill="#FC1C1C" transform="translate(160.59765625,45.84765625)"/>
<path d="M0 0 C17.16 0 34.32 0 52 0 C53.32 3.3 54.64 6.6 56 10 C59.85592995 16.80458226 65.4034687 21.06409295 72.86328125 23.64453125 C83.79481616 25.46312298 93.48157209 24.20076465 102.8125 18.1875 C108.39225672 12.60774328 110.3964382 7.8106854 113 0 C129.5 0 146 0 163 0 C163 20.2474182 152.94716308 37.81604298 139 52 C138.31292969 52.69996094 137.62585938 53.39992187 136.91796875 54.12109375 C121.17757201 69.10221347 100.2536283 75.57731458 78.89257812 75.41699219 C64.05243356 74.9943637 51.80661572 70.21766583 39 63 C38.15953125 62.53980469 37.3190625 62.07960937 36.453125 61.60546875 C17.96115156 50.43604684 7.07873813 31.10510147 1.578125 10.765625 C0.83600208 7.21546941 0.44986068 3.59888545 0 0 Z " fill="#FCFCFC" transform="translate(30,118)"/>
<path d="M0 0 C14.22135085 2.5423644 26.33630625 9.3676825 37 19 C37.75667969 19.66386719 38.51335937 20.32773437 39.29296875 21.01171875 C50.98112185 31.89517973 60.31996891 48.18781655 63 64 C63 66.97 63 69.94 63 73 C46.17 73 29.34 73 12 73 C12 72.67 12 72.34 12 72 C21.9 72 31.8 72 42 72 C38.20304845 46.02085784 29.38912899 22.6067005 8 6 C5.84592884 4.56036244 3.67923388 3.20150876 1.43359375 1.91015625 C0.96050781 1.60980469 0.48742187 1.30945312 0 1 C0 0.67 0 0.34 0 0 Z " fill="#D91818" transform="translate(131,33)"/>
<path d="M0 0 C16.5 0 33 0 50 0 C50 20.2474182 39.94716308 37.81604298 26 52 C25.31292969 52.69996094 24.62585938 53.39992187 23.91796875 54.12109375 C16.3889016 61.2869777 1.87676731 72 -9 72 C-9 71.34 -9 70.68 -9 70 C-7.41584424 68.79833052 -5.7797646 67.66491243 -4.125 66.5625 C13.56637941 53.91282306 24.30589703 33.43429265 28.45703125 12.3515625 C29.06770833 8.58205936 29.52635488 4.78916095 30 1 C20.1 1 10.2 1 0 1 C0 0.67 0 0.34 0 0 Z " fill="#DADADA" transform="translate(143,118)"/>
<path d="M0 0 C4.75389107 2.61604657 8.44795424 6.58340848 10.875 11.4375 C11.37739048 16.93908755 11.63705731 21.82545569 9.25 26.875 C4.34372461 32.16861293 -0.04226915 35.97530406 -7.4375 36.8125 C-14.80324069 36.06344162 -19.38257408 32.76542708 -23.99609375 27.12109375 C-27.11188753 22.47435631 -26.74692425 16.78604858 -26.125 11.4375 C-24.05345426 5.4249648 -20.07074494 2.02886135 -14.453125 -0.71484375 C-9.32417961 -2.58226179 -5.01598882 -2.18914123 0 0 Z " fill="#FBFBFB" transform="translate(120.125,94.5625)"/>
</svg>
